<svg width="331" height="331" viewBox="0 0 331 331" fill="none" xmlns="http://www.w3.org/2000/svg">
<circle cx="165.5" cy="165.5" r="163" fill="#5F1BB5" stroke="#8E09CD" stroke-width="5"/>
<rect x="140.949" y="102.689" width="117.551" height="14.5038" rx="7.25191" fill="white" stroke="white"/>
<rect width="58.5033" height="15.5129" rx="7.75645" transform="matrix(0.672317 -0.740064 0.741176 0.67153 84.3572 118.442)" fill="white"/>
<rect width="33.1747" height="15.6361" rx="7.81803" transform="matrix(0.569753 0.821967 -0.822474 0.568585 87.0616 92.5118)" fill="white"/>
<rect x="140.949" y="165.235" width="117.551" height="14.5038" rx="7.25191" fill="white" stroke="white"/>
<rect width="58.5033" height="15.5129" rx="7.75645" transform="matrix(0.672317 -0.740064 0.741176 0.67153 84.3572 180.988)" fill="white"/>
<rect width="33.1747" height="15.6361" rx="7.81803" transform="matrix(0.569753 0.821967 -0.822474 0.568585 87.0616 155.058)" fill="white"/>
<rect x="140.949" y="227.781" width="117.551" height="14.5038" rx="7.25191" fill="white" stroke="white"/>
<rect width="58.5033" height="15.5129" rx="7.75645" transform="matrix(0.672317 -0.740064 0.741176 0.67153 84.3572 243.534)" fill="white"/>
<rect width="33.1747" height="15.6361" rx="7.81803" transform="matrix(0.569753 0.821967 -0.822474 0.568585 87.0616 217.604)" fill="white"/>
</svg>
