<svg width="331" height="331" viewBox="0 0 331 331" fill="none" xmlns="http://www.w3.org/2000/svg">
<circle cx="165.5" cy="165.5" r="163" fill="#5F1BB5" stroke="#8E09CD" stroke-width="5"/>
<rect x="146.575" y="94.3385" width="90.9245" height="11.0112" rx="5.5056" fill="#8E09CD" stroke="#B736F4"/>
<rect width="45.3462" height="12.0228" rx="6.01142" transform="matrix(0.672573 -0.739702 0.741538 0.671273 102.582 106.43)" fill="#8E09CD"/>
<rect width="25.7065" height="12.1218" rx="6.06089" transform="matrix(0.570135 0.8218 -0.82264 0.568203 104.679 86.3416)" fill="#8E09CD"/>
<rect x="146.575" y="142.794" width="90.9245" height="11.0112" rx="5.5056" fill="#8E09CD" stroke="#B736F4"/>
<rect width="45.3462" height="12.0228" rx="6.01142" transform="matrix(0.672573 -0.739702 0.741538 0.671273 102.582 154.886)" fill="#8E09CD"/>
<rect width="25.7065" height="12.1218" rx="6.06089" transform="matrix(0.570135 0.8218 -0.82264 0.568203 104.679 134.798)" fill="#8E09CD"/>
<rect x="146.575" y="191.25" width="90.9245" height="11.0112" rx="5.5056" fill="#8E09CD" stroke="#B736F4"/>
<rect width="45.3462" height="12.0228" rx="6.01142" transform="matrix(0.672573 -0.739702 0.741538 0.671273 102.582 203.342)" fill="#8E09CD"/>
<rect width="25.7065" height="12.1218" rx="6.06089" transform="matrix(0.570135 0.8218 -0.82264 0.568203 104.679 183.253)" fill="#8E09CD"/>
<path d="M99.92 247.536H100.56V249.456C100.56 250.373 100.581 251.792 100.624 253.712C100.688 255.184 100.72 256.709 100.72 258.288C100.72 258.992 100.709 259.515 100.688 259.856L100.656 261.424C100.613 263.024 100.517 264.357 100.368 265.424C100.219 266.469 99.8667 267.461 99.312 268.4C98.7573 269.317 97.904 269.989 96.752 270.416H96.784C95.8027 270.949 94.5547 271.216 93.04 271.216C90.4373 271.216 88.5707 270.309 87.44 268.496C86.3307 266.683 85.776 264.432 85.776 261.744L85.808 260.528C86.128 260.421 86.4907 260.357 86.896 260.336C87.3227 260.315 87.7387 260.304 88.144 260.304C89.4667 260.304 90.5547 260.4 91.408 260.592V261.136L92.048 261.232V261.68C92.048 261.787 92.0693 262.107 92.112 262.64C92.1547 263.173 92.272 263.6 92.464 263.92C92.6773 264.24 92.9653 264.4 93.328 264.4C93.7333 264.4 94.032 264.219 94.224 263.856C94.4373 263.472 94.576 263.003 94.64 262.448C94.5547 259.952 94.512 256.933 94.512 253.392C94.4907 253.136 94.48 252.741 94.48 252.208C94.48 251.696 94.5013 250.928 94.544 249.904C94.5867 248.837 94.608 248.037 94.608 247.504V246.96L99.92 246.896V247.536ZM94.928 247.504C94.864 249.488 94.832 251.451 94.832 253.392C94.832 256.805 94.8747 259.824 94.96 262.448C94.896 263.088 94.7253 263.632 94.448 264.08C94.192 264.507 93.8187 264.72 93.328 264.72C92.5173 264.72 91.952 264.368 91.632 263.664C91.3333 262.96 91.152 262.085 91.088 261.04V260.848C90.0853 260.699 89.104 260.624 88.144 260.624C87.376 260.624 86.704 260.677 86.128 260.784C86.1067 261.019 86.096 261.349 86.096 261.776C86.096 263.717 86.3947 265.467 86.992 267.024C87.5893 268.581 88.6027 269.573 90.032 270C90.8853 270.171 91.6747 270.256 92.4 270.256C93.7653 270.256 94.9707 270 96.016 269.488C97.104 269.083 97.904 268.432 98.416 267.536C98.9493 266.64 99.28 265.68 99.408 264.656C99.5573 263.632 99.6533 262.341 99.696 260.784C99.696 260.187 99.7067 259.749 99.728 259.472C99.7493 259.109 99.7493 258.8 99.728 258.544C99.728 258.267 99.728 258.032 99.728 257.84C99.728 256.283 99.696 254.757 99.632 253.264C99.5893 251.259 99.568 249.776 99.568 248.816C99.568 248.112 99.5787 247.579 99.6 247.216L94.928 247.28V247.504ZM114.349 259.856C115.138 260.816 115.725 261.648 116.109 262.352C116.493 263.056 116.685 263.888 116.685 264.848C116.685 267.28 115.927 268.933 114.413 269.808C112.919 270.683 110.978 271.12 108.589 271.12C107.394 271.12 106.359 271.077 105.485 270.992H105.516L103.533 270.896H103.405H103.181C102.733 270.896 102.509 270.683 102.509 270.256C102.167 270.171 101.965 270.117 101.901 270.096C101.815 267.856 101.773 265.317 101.773 262.48C101.773 260.133 101.783 258.384 101.805 257.232L101.837 251.92V247.568C103.586 247.056 105.335 246.8 107.085 246.8C108.642 246.8 110.082 247.077 111.405 247.632C112.727 248.165 113.794 248.997 114.605 250.128C115.415 251.259 115.821 252.677 115.821 254.384C115.821 255.963 115.287 257.68 114.221 259.536V259.6C114.221 259.664 114.263 259.739 114.349 259.824V259.856ZM113.197 258.992C113.197 258.907 113.229 258.821 113.293 258.736C114.338 256.987 114.861 255.323 114.861 253.744C114.861 251.419 114.125 249.733 112.653 248.688C111.181 247.643 109.325 247.12 107.085 247.12C105.506 247.12 103.863 247.355 102.157 247.824L102.125 247.856C102.146 248.859 102.157 250.341 102.157 252.304C102.157 254.587 102.146 256.293 102.125 257.424L102.093 262.544C102.093 265.232 102.135 267.675 102.221 269.872C102.391 269.915 102.498 269.936 102.541 269.936H102.924C103.351 269.936 103.735 269.947 104.077 269.968C104.439 269.989 104.738 270.011 104.973 270.032C106.253 270.117 107.245 270.16 107.949 270.16C110.253 270.16 112.119 269.744 113.549 268.912C114.999 268.08 115.725 266.512 115.725 264.208C115.725 263.291 115.533 262.501 115.149 261.84C114.786 261.157 114.221 260.347 113.453 259.408C113.282 259.237 113.197 259.099 113.197 258.992ZM108.077 256.656C107.586 256.656 107.127 256.624 106.701 256.56C106.573 256.133 106.509 255.589 106.509 254.928L106.541 253.808C106.562 253.616 106.573 253.349 106.573 253.008V252.592C106.85 252.443 107.245 252.368 107.757 252.368C108.525 252.368 109.229 252.517 109.869 252.816C110.509 253.093 110.829 253.584 110.829 254.288C110.829 254.736 110.69 255.173 110.413 255.6C110.199 256.005 109.89 256.283 109.485 256.432C109.101 256.581 108.631 256.656 108.077 256.656ZM110.509 254.288C110.509 254.032 110.445 253.851 110.317 253.744C110.189 253.616 109.986 253.52 109.709 253.456H109.741C109.314 253.371 108.866 253.328 108.397 253.328C108.013 253.328 107.735 253.36 107.565 253.424V253.744L107.533 254.832C107.49 255.429 107.469 255.867 107.469 256.144L107.501 256.336H108.077C109.122 256.336 109.805 256.037 110.125 255.44C110.381 255.035 110.509 254.651 110.509 254.288ZM106.829 265.52L106.765 265.488C106.466 265.083 106.317 264.443 106.317 263.568C106.317 262.565 106.434 261.712 106.669 261.008L107.437 261.072C108.119 261.093 108.685 261.157 109.133 261.264C109.581 261.349 109.965 261.573 110.285 261.936C110.605 262.299 110.765 262.843 110.765 263.568C110.765 264.059 110.658 264.443 110.445 264.72C110.167 265.061 109.826 265.285 109.421 265.392C109.015 265.499 108.535 265.552 107.981 265.552L106.829 265.52ZM110.445 263.568C110.445 263.291 110.381 262.917 110.253 262.448V262.48L110.22 262.448C109.794 262.192 109.175 262.064 108.365 262.064C108.173 262.064 107.906 262.043 107.565 262C107.373 262.96 107.277 263.696 107.277 264.208C107.277 264.293 107.266 264.443 107.245 264.656C107.245 264.869 107.298 265.019 107.405 265.104C107.533 265.189 107.735 265.232 108.013 265.232C108.525 265.232 108.951 265.189 109.293 265.104C109.655 264.997 109.954 264.805 110.189 264.528C110.359 264.293 110.445 263.973 110.445 263.568ZM116.959 260.56L116.991 258.096H131.807V258.736H132.447L132.415 260.56C132.393 260.944 132.383 261.488 132.383 262.192C132.383 263.131 132.436 263.973 132.543 264.72L117.855 264.496L117.535 264.176V263.856H117.215L116.895 263.536L116.959 260.56ZM131.583 263.76C131.476 263.141 131.423 262.427 131.423 261.616L131.455 260.016C131.476 259.653 131.487 259.12 131.487 258.416H117.311L117.279 259.664L117.215 263.536C117.3 263.536 117.513 263.547 117.855 263.568C118.196 263.568 118.772 263.568 119.583 263.568C123.679 263.696 127.252 263.76 130.303 263.76H131.583ZM146.222 248.368C146.264 249.093 146.286 249.733 146.286 250.288C146.286 251.269 146.2 252.421 146.03 253.744C145.347 253.637 144.856 253.584 144.558 253.584C143.982 253.584 143.192 253.616 142.19 253.68H142.03C142.008 253.872 141.998 254.437 141.998 255.376C141.998 257.403 142.072 262.523 142.222 270.736C141.731 270.821 141.059 270.864 140.206 270.864H139.278C138.083 270.864 137.155 270.917 136.494 271.024C136.43 270.917 136.376 270.683 136.334 270.32L135.854 270.384C135.747 270.192 135.694 269.787 135.694 269.168L135.726 264.272C135.726 261.221 135.63 257.68 135.438 253.648C135.267 253.627 135 253.616 134.638 253.616C134.51 253.616 134.275 253.616 133.934 253.616C133.614 253.616 133.315 253.605 133.038 253.584C132.782 253.563 132.536 253.509 132.302 253.424C132.28 253.381 132.259 253.317 132.238 253.232C132.238 253.147 132.195 253.072 132.11 253.008C132.024 252.944 131.875 252.869 131.662 252.784C131.598 252.635 131.534 252.251 131.47 251.632C131.427 251.013 131.405 250.341 131.405 249.616C131.405 248.464 131.416 247.643 131.438 247.152C132.782 247.152 133.795 247.141 134.478 247.12L137.55 247.088C140.643 247.088 143.224 247.205 145.294 247.44L145.582 247.728V248.048L145.934 248.08L146.222 248.368ZM131.758 247.472L131.79 247.536C131.747 247.813 131.726 248.219 131.726 248.752C131.726 251.077 131.79 252.347 131.918 252.56C132.024 252.603 132.355 252.624 132.91 252.624C133.656 252.624 134.243 252.645 134.67 252.688C135.096 252.709 135.459 252.795 135.758 252.944L135.79 252.976C135.96 256.859 136.046 260.699 136.046 264.496C136.046 266.139 136.024 267.557 135.982 268.752V269.712L136.014 270.032C136.398 269.968 136.814 269.936 137.262 269.936H138.606C139.864 269.936 140.75 269.893 141.262 269.808V269.744C141.112 261.552 141.038 256.549 141.038 254.736V253.584C141.038 253.157 141.059 252.901 141.102 252.816L141.134 252.72H141.23C142.339 252.656 143.214 252.624 143.854 252.624C144.366 252.624 144.792 252.656 145.134 252.72C145.262 251.781 145.326 250.757 145.326 249.648C145.326 249.2 145.304 248.571 145.262 247.76C143.15 247.547 140.579 247.44 137.55 247.44L131.758 247.472ZM145.058 255.28C145.378 254.597 146.008 254.085 146.946 253.744C147.906 253.403 148.984 253.232 150.178 253.232C150.349 253.253 150.744 253.264 151.362 253.264L152.13 253.232C152.941 253.232 153.73 253.36 154.498 253.616C155.266 253.872 155.906 254.245 156.418 254.736H156.386C156.45 254.821 156.546 254.939 156.674 255.088C156.802 255.216 156.92 255.312 157.026 255.376L156.994 255.344C157.57 255.728 157.954 256.496 158.146 257.648C158.36 258.8 158.466 260.229 158.466 261.936C158.466 263.451 158.37 265.019 158.178 266.64C157.986 268.261 157.72 269.264 157.378 269.648C156.93 270.288 156.322 270.725 155.554 270.96C154.786 271.195 153.89 271.312 152.866 271.312C151.778 271.312 150.893 271.28 150.21 271.216C149.549 271.152 148.888 270.971 148.226 270.672C147.586 270.395 146.968 269.947 146.37 269.328L146.082 269.04C145.421 268.421 144.973 267.632 144.738 266.672C144.504 265.691 144.386 264.549 144.386 263.248V262.096L144.418 261.008C144.418 260.752 144.408 260.507 144.386 260.272C144.365 260.037 144.354 259.824 144.354 259.632C144.354 258.715 144.376 258.021 144.418 257.552C144.461 257.083 144.621 256.517 144.898 255.856H144.866C144.888 255.728 144.909 255.6 144.93 255.472C144.973 255.344 145.016 255.259 145.058 255.216V255.248L145.026 255.344L145.058 255.28ZM144.706 260.944V263.312C144.706 265.189 145.016 266.747 145.634 267.984C146.274 269.2 147.416 269.947 149.058 270.224L150.562 270.256C151.288 270.299 151.853 270.32 152.258 270.32C153.261 270.32 154.114 270.213 154.818 270C155.522 269.787 156.077 269.392 156.482 268.816C156.845 268.453 157.08 267.643 157.186 266.384C157.314 265.125 157.421 263.429 157.506 261.296C157.506 261.104 157.485 260.421 157.442 259.248C157.4 258.053 157.272 257.104 157.058 256.4C156.866 255.675 156.578 255.195 156.194 254.96C155.234 254.021 153.837 253.552 152.002 253.552L150.786 253.584C150.509 253.584 150.296 253.573 150.146 253.552C149.058 253.552 148.056 253.712 147.138 254.032C146.221 254.352 145.624 254.811 145.346 255.408C145.112 256.24 144.941 256.976 144.834 257.616C144.728 258.256 144.674 258.917 144.674 259.6L144.706 260.944ZM151.266 258.384C152.76 258.384 153.506 259.493 153.506 261.712C153.506 262.629 153.464 263.365 153.378 263.92C153.293 264.453 153.069 264.891 152.706 265.232C152.344 265.573 151.789 265.744 151.042 265.744C150.402 265.744 149.88 265.605 149.474 265.328C149.069 265.051 148.866 264.603 148.866 263.984C148.888 263.707 148.898 263.216 148.898 262.512C148.898 261.531 148.92 260.773 148.962 260.24C149.026 259.685 149.154 259.333 149.346 259.184C149.773 258.651 150.413 258.384 151.266 258.384ZM150.178 260.08C150.008 260.187 149.901 260.677 149.858 261.552C149.837 262.405 149.826 263.44 149.826 264.656C149.826 264.997 149.933 265.211 150.146 265.296C150.36 265.381 150.658 265.424 151.042 265.424C152.344 265.424 152.994 264.976 152.994 264.08C153.122 262.928 153.186 262.096 153.186 261.584C153.186 260.88 153.101 260.336 152.93 259.952C152.781 259.568 152.418 259.376 151.842 259.376C151.714 259.376 151.48 259.397 151.138 259.44H151.17C150.765 259.547 150.456 259.739 150.242 260.016L150.178 260.08ZM171.722 250.736C172.639 252.123 173.301 253.723 173.706 255.536L173.674 255.504C173.845 256.016 173.951 256.731 173.994 257.648L173.898 259.472C173.855 261.285 173.738 262.661 173.546 263.6C173.098 264.901 172.511 266.128 171.786 267.28C171.082 268.432 170.25 269.605 169.29 270.8C167.242 270.864 165.055 270.896 162.73 270.896C162.175 270.917 161.397 270.928 160.394 270.928L160.298 270.256L159.754 270.288C159.37 267.493 159.178 263.92 159.178 259.568C159.178 257.755 159.189 256.389 159.21 255.472L159.242 251.12C159.242 249.733 159.231 248.699 159.21 248.016C159.21 247.973 159.221 247.941 159.242 247.92C159.285 247.813 159.359 247.707 159.466 247.6C160.021 247.451 160.575 247.355 161.13 247.312C161.706 247.248 162.378 247.216 163.146 247.216C163.807 247.216 164.309 247.227 164.65 247.248L166.122 247.28C166.677 247.28 167.093 247.269 167.37 247.248C168.223 247.504 169.066 247.973 169.898 248.656C170.73 249.317 171.349 250.011 171.754 250.736H171.722ZM166.41 247.6C165.727 247.6 165.205 247.589 164.842 247.568L163.242 247.536C161.77 247.536 160.565 247.653 159.626 247.888L159.53 248.016C159.551 248.699 159.562 249.723 159.562 251.088L159.53 255.44C159.509 256.379 159.498 257.797 159.498 259.696C159.498 261.829 159.53 263.707 159.594 265.328C159.679 266.949 159.829 268.496 160.042 269.968L160.074 269.936C163.807 269.936 166.613 269.904 168.49 269.84C169.471 268.624 170.293 267.483 170.954 266.416C171.637 265.349 172.17 264.229 172.554 263.056L172.586 262.992C172.799 261.861 172.927 260.336 172.97 258.416L173.034 256.976C172.97 255.824 172.746 254.661 172.362 253.488C171.978 252.315 171.466 251.237 170.826 250.256C170.442 249.616 169.93 249.051 169.29 248.56C168.671 248.069 168.021 247.739 167.338 247.568L166.41 247.6ZM166.314 263.088C165.951 263.152 165.578 263.184 165.194 263.184C164.703 263.184 164.351 263.088 164.138 262.896C164.095 261.915 164.074 261.157 164.074 260.624L164.106 258.48C164.127 258.032 164.138 257.392 164.138 256.56C164.138 256.069 164.117 255.419 164.074 254.608V254.48H164.17C164.554 254.416 164.959 254.384 165.386 254.384C166.666 254.384 167.551 254.853 168.042 255.792C168.533 256.709 168.778 257.787 168.778 259.024C168.778 259.984 168.479 260.933 167.882 261.872C167.669 262.192 167.423 262.48 167.146 262.736C166.869 262.971 166.613 263.088 166.378 263.088H166.314ZM167.626 261.712C168.181 260.88 168.458 259.984 168.458 259.024C168.458 258.555 168.373 257.989 168.202 257.328C168.031 256.645 167.797 256.059 167.498 255.568L167.178 255.408C166.666 255.365 166.282 255.344 166.026 255.344C165.834 255.344 165.503 255.365 165.034 255.408C165.077 256.219 165.098 256.891 165.098 257.424L165.066 259.888C165.023 260.997 165.002 261.819 165.002 262.352L165.034 262.864H165.194C165.429 262.864 165.653 262.853 165.866 262.832C166.079 262.789 166.239 262.768 166.346 262.768L166.41 262.8C166.474 262.8 166.591 262.736 166.762 262.608H166.73C167.05 262.416 167.349 262.107 167.626 261.68V261.712ZM174.84 255.28C175.16 254.597 175.789 254.085 176.728 253.744C177.688 253.403 178.765 253.232 179.96 253.232C180.13 253.253 180.525 253.264 181.144 253.264L181.911 253.232C182.722 253.232 183.512 253.36 184.28 253.616C185.048 253.872 185.688 254.245 186.2 254.736H186.168C186.232 254.821 186.328 254.939 186.456 255.088C186.584 255.216 186.701 255.312 186.808 255.376L186.776 255.344C187.352 255.728 187.736 256.496 187.928 257.648C188.141 258.8 188.248 260.229 188.248 261.936C188.248 263.451 188.152 265.019 187.96 266.64C187.768 268.261 187.501 269.264 187.16 269.648C186.712 270.288 186.104 270.725 185.336 270.96C184.568 271.195 183.672 271.312 182.648 271.312C181.56 271.312 180.674 271.28 179.992 271.216C179.33 271.152 178.669 270.971 178.008 270.672C177.368 270.395 176.749 269.947 176.152 269.328L175.864 269.04C175.202 268.421 174.754 267.632 174.52 266.672C174.285 265.691 174.168 264.549 174.168 263.248V262.096L174.2 261.008C174.2 260.752 174.189 260.507 174.168 260.272C174.146 260.037 174.136 259.824 174.136 259.632C174.136 258.715 174.157 258.021 174.2 257.552C174.242 257.083 174.402 256.517 174.68 255.856H174.648C174.669 255.728 174.69 255.6 174.712 255.472C174.754 255.344 174.797 255.259 174.84 255.216V255.248L174.808 255.344L174.84 255.28ZM174.488 260.944V263.312C174.488 265.189 174.797 266.747 175.416 267.984C176.056 269.2 177.197 269.947 178.84 270.224L180.344 270.256C181.069 270.299 181.634 270.32 182.04 270.32C183.042 270.32 183.896 270.213 184.6 270C185.304 269.787 185.858 269.392 186.264 268.816C186.626 268.453 186.861 267.643 186.968 266.384C187.096 265.125 187.202 263.429 187.288 261.296C187.288 261.104 187.266 260.421 187.224 259.248C187.181 258.053 187.053 257.104 186.84 256.4C186.648 255.675 186.36 255.195 185.976 254.96C185.016 254.021 183.618 253.552 181.784 253.552L180.568 253.584C180.29 253.584 180.077 253.573 179.928 253.552C178.84 253.552 177.837 253.712 176.92 254.032C176.002 254.352 175.405 254.811 175.128 255.408C174.893 256.24 174.722 256.976 174.616 257.616C174.509 258.256 174.456 258.917 174.456 259.6L174.488 260.944ZM181.048 258.384C182.541 258.384 183.288 259.493 183.288 261.712C183.288 262.629 183.245 263.365 183.16 263.92C183.074 264.453 182.85 264.891 182.488 265.232C182.125 265.573 181.57 265.744 180.824 265.744C180.184 265.744 179.661 265.605 179.256 265.328C178.85 265.051 178.648 264.603 178.648 263.984C178.669 263.707 178.68 263.216 178.68 262.512C178.68 261.531 178.701 260.773 178.744 260.24C178.808 259.685 178.936 259.333 179.128 259.184C179.554 258.651 180.194 258.384 181.048 258.384ZM179.96 260.08C179.789 260.187 179.682 260.677 179.64 261.552C179.618 262.405 179.608 263.44 179.608 264.656C179.608 264.997 179.714 265.211 179.928 265.296C180.141 265.381 180.44 265.424 180.824 265.424C182.125 265.424 182.776 264.976 182.776 264.08C182.904 262.928 182.968 262.096 182.968 261.584C182.968 260.88 182.882 260.336 182.712 259.952C182.562 259.568 182.2 259.376 181.624 259.376C181.496 259.376 181.261 259.397 180.92 259.44H180.952C180.546 259.547 180.237 259.739 180.024 260.016L179.96 260.08ZM210.086 269.456C210.086 269.989 210.043 270.363 209.958 270.576C209.894 270.789 209.798 270.907 209.67 270.928C209.542 270.949 209.264 270.96 208.838 270.96L208.294 270.928C207.931 270.928 207.6 270.939 207.302 270.96C205.936 271.003 204.038 271.024 201.606 271.024C199.259 271.024 197.36 271.013 195.91 270.992V270.352H195.27V269.456C195.419 266.448 195.493 262.907 195.493 258.832C195.493 254.267 195.451 250.416 195.366 247.28C195.643 247.173 196.027 247.088 196.518 247.024C197.03 246.939 197.542 246.896 198.054 246.896C199.334 246.896 200.358 247.067 201.126 247.408L201.094 247.824C201.2 247.867 201.307 247.909 201.414 247.952C201.52 247.973 201.638 248.005 201.766 248.048C201.723 249.584 201.702 250.853 201.702 251.856C201.702 253.136 201.723 255.056 201.766 257.616L201.798 263.28V264.56C204.699 264.731 206.811 264.816 208.134 264.816C208.539 264.816 208.976 264.795 209.446 264.752V265.456L210.086 265.392C210.086 265.84 210.064 266.277 210.022 266.704L209.99 267.376L210.022 267.696V267.728L210.086 269.456ZM209.03 266.768C209.03 266.597 209.051 266.32 209.094 265.936L209.126 265.136C209.083 265.157 208.923 265.168 208.646 265.168C208.24 265.168 207.227 265.125 205.606 265.04C205.222 265.019 204.603 264.987 203.75 264.944C202.918 264.901 202.267 264.88 201.798 264.88C201.456 264.88 201.136 264.901 200.838 264.944V264.912L200.87 262.416C200.87 261.243 200.848 259.419 200.806 256.944C200.763 254.512 200.742 252.677 200.742 251.44C200.742 250.544 200.763 249.264 200.806 247.6C200.208 247.344 199.291 247.216 198.054 247.216C197.563 247.216 197.094 247.248 196.646 247.312C196.219 247.355 195.899 247.419 195.686 247.504C195.771 251.749 195.814 255.525 195.814 258.832C195.814 262.907 195.739 266.448 195.59 269.456V270.032C196.208 270.032 196.656 270.043 196.934 270.064L201.318 270.096C203.024 270.096 204.87 270.064 206.854 270C207.11 269.979 207.408 269.968 207.75 269.968L208.454 270C208.731 270 208.912 269.936 208.998 269.808C209.083 269.68 209.126 269.349 209.126 268.816L209.062 267.088L209.03 266.768ZM214.98 247.344H215.62L215.652 249.072C215.694 250.309 215.716 251.237 215.716 251.856C215.481 252.219 214.969 252.4 214.18 252.4C213.988 252.4 213.572 252.379 212.932 252.336H212.964L211.876 252.304C211.449 252.304 211.076 252.315 210.756 252.336V251.664L210.116 251.696C210.116 251.291 210.094 250.683 210.052 249.872C210.009 248.891 209.988 248.027 209.988 247.28V246.608L214.98 246.704V247.344ZM210.308 247.44C210.308 248.101 210.329 248.88 210.372 249.776C210.414 250.501 210.436 251.024 210.436 251.344H210.98C211.3 251.344 211.758 251.365 212.356 251.408L213.508 251.44C214.212 251.44 214.628 251.333 214.756 251.12C214.756 250.437 214.734 249.499 214.692 248.304C214.67 247.92 214.66 247.493 214.66 247.024L210.308 246.928V247.44ZM215.108 254.288L215.748 254.384C215.748 255.6 215.726 257.445 215.684 259.92C215.62 261.776 215.588 263.675 215.588 265.616C215.588 267.515 215.63 269.157 215.716 270.544C215.545 270.715 215.31 270.832 215.012 270.896C214.713 270.96 214.329 270.992 213.86 270.992C213.241 270.992 212.772 270.981 212.452 270.96H212.484L211.716 270.928C211.246 270.928 210.852 270.981 210.532 271.088C210.532 270.939 210.553 270.672 210.596 270.288C210.276 270.331 210.041 270.384 209.892 270.448C209.998 269.019 210.052 267.547 210.052 266.032C210.052 265.179 210.03 263.899 209.988 262.192C209.945 260.485 209.924 259.184 209.924 258.288C209.924 256.795 209.998 255.227 210.148 253.584C210.297 253.584 210.404 253.573 210.468 253.552L210.98 253.488C211.15 253.488 211.47 253.509 211.94 253.552C212.43 253.573 212.953 253.584 213.508 253.584H214.244L215.108 253.744V254.288ZM213.508 253.904C212.804 253.904 212.132 253.883 211.492 253.84L210.564 253.808H210.436V253.84C210.308 254.971 210.243 256.432 210.243 258.224C210.243 259.035 210.265 260.315 210.308 262.064C210.35 263.813 210.372 265.147 210.372 266.064C210.372 267.515 210.329 268.827 210.243 270C210.286 269.979 210.457 269.968 210.756 269.968C211.204 269.968 211.566 269.979 211.844 270L213.284 270.032C213.753 270.032 214.094 270.021 214.308 270C214.542 269.979 214.692 269.915 214.756 269.808C214.67 268.293 214.628 266.576 214.628 264.656C214.628 262.565 214.66 260.496 214.724 258.448C214.766 256.443 214.788 254.96 214.788 254V253.904H213.508ZM230.469 259.888C229.722 260.016 228.901 260.08 228.005 260.08C227.258 260.08 226.405 259.995 225.445 259.824L225.477 259.568C225.477 259.44 225.423 259.355 225.317 259.312C225.21 259.248 225.103 259.216 224.997 259.216C224.89 259.195 224.826 259.184 224.805 259.184L224.837 258.928C224.837 258.587 224.73 258.352 224.517 258.224C224.303 258.075 224.026 257.968 223.685 257.904C223.301 258.011 223.002 258.171 222.789 258.384C222.575 258.597 222.469 258.832 222.469 259.088C222.469 259.493 222.682 259.781 223.109 259.952L223.045 259.92C225.434 260.304 227.279 260.923 228.581 261.776C229.882 262.629 230.533 263.984 230.533 265.84C230.533 267.803 229.893 269.232 228.613 270.128C227.333 271.024 225.647 271.472 223.557 271.472C222.063 271.472 220.73 271.184 219.557 270.608C218.383 270.053 217.466 269.296 216.805 268.336C216.165 267.355 215.845 266.288 215.845 265.136V264.688C216.506 264.603 217.231 264.56 218.021 264.56L219.685 264.592C220.026 264.613 220.527 264.624 221.189 264.624C221.189 264.795 221.242 265.008 221.349 265.264H221.829C221.829 266.011 222.309 266.384 223.269 266.384C224.143 266.384 224.581 265.957 224.581 265.104C224.581 264.784 224.41 264.56 224.069 264.432C223.749 264.283 223.226 264.133 222.501 263.984C221.583 263.813 220.879 263.621 220.389 263.408H220.421C219.119 262.96 218.085 262.235 217.317 261.232C216.549 260.208 216.165 259.152 216.165 258.064C216.165 257.061 216.485 256.112 217.125 255.216C217.786 254.32 218.65 253.712 219.717 253.392C220.442 253.179 221.551 253.072 223.045 253.072C224.474 253.072 225.647 253.179 226.565 253.392C227.482 253.605 228.229 254.075 228.805 254.8C230.085 255.845 230.725 257.435 230.725 259.568L230.469 259.888ZM226.981 253.776C225.829 253.52 224.517 253.392 223.045 253.392C218.671 253.392 216.485 254.949 216.485 258.064C216.485 259.024 216.773 259.909 217.349 260.72C217.925 261.509 218.767 262.096 219.877 262.48C220.389 262.715 221.199 262.939 222.309 263.152C223.226 263.365 223.887 263.579 224.293 263.792C224.698 264.005 224.901 264.368 224.901 264.88C224.901 265.52 224.762 265.989 224.485 266.288C224.207 266.565 223.802 266.704 223.269 266.704C222.671 266.704 222.138 266.544 221.669 266.224C221.199 265.904 220.943 265.477 220.901 264.944L217.221 264.912C216.73 264.912 216.378 264.933 216.165 264.976V265.136C216.165 266.779 216.783 268.091 218.021 269.072C219.258 270.032 220.89 270.512 222.917 270.512C224.858 270.512 226.447 270.117 227.685 269.328C228.922 268.517 229.541 267.141 229.541 265.2C229.541 264.091 229.285 263.205 228.773 262.544C228.261 261.883 227.546 261.392 226.629 261.072C225.733 260.752 224.527 260.475 223.013 260.24C222.522 260.069 222.149 259.824 221.893 259.504C221.637 259.184 221.509 258.843 221.509 258.48C221.509 258.117 221.647 257.776 221.925 257.456C222.223 257.115 222.629 256.944 223.141 256.944C223.631 256.944 224.101 257.125 224.549 257.488C224.997 257.851 225.22 258.245 225.22 258.672C225.22 258.8 225.21 258.885 225.189 258.928C225.85 259.056 226.575 259.12 227.365 259.12C228.239 259.12 229.039 259.056 229.765 258.928C229.765 257.712 229.541 256.656 229.093 255.76C228.645 254.843 227.941 254.181 226.981 253.776ZM238.059 253.872C238.763 253.851 239.851 253.787 241.323 253.68L242.123 253.616C242.293 253.872 242.411 254.096 242.475 254.288L242.763 254.256C243.061 254.619 243.211 255.12 243.211 255.76C243.211 255.995 243.189 256.347 243.147 256.816C243.104 257.285 243.083 257.648 243.083 257.904C243.083 258.139 243.115 258.469 243.179 258.896H238.155C238.155 261.563 238.165 263.525 238.187 264.784C238.592 264.976 239.104 265.125 239.723 265.232C240.341 265.317 240.971 265.36 241.611 265.36C242.016 265.36 242.304 265.349 242.475 265.328L242.507 265.872V266C242.763 266 242.965 265.989 243.115 265.968C243.115 266.331 243.147 266.736 243.211 267.184C243.296 267.867 243.339 268.443 243.339 268.912C243.339 269.701 243.232 270.384 243.019 270.96C242.741 270.981 242.24 270.992 241.515 270.992C239.488 270.992 237.707 270.693 236.171 270.096C234.656 269.499 233.621 268.539 233.067 267.216C232.853 266 232.715 264.837 232.651 263.728C232.587 262.619 232.555 261.307 232.555 259.792V259.024L230.891 258.992V258.352H230.251L230.347 253.808C230.923 253.829 231.68 253.84 232.619 253.84C232.619 253.093 232.608 252.528 232.587 252.144L232.555 250.256C232.555 249.275 232.597 248.432 232.683 247.728C233.152 247.685 233.504 247.664 233.739 247.664C234.059 247.664 234.496 247.685 235.051 247.728C235.477 247.792 235.915 247.824 236.363 247.824H236.779C237.056 247.824 237.269 247.803 237.419 247.76V248.464C237.547 248.464 237.76 248.443 238.059 248.4V253.872ZM237.099 248.112C236.949 248.133 236.704 248.144 236.363 248.144C235.829 248.144 235.339 248.112 234.891 248.048C234.293 248.005 233.856 247.984 233.579 247.984C233.323 247.984 233.12 247.995 232.971 248.016C232.907 248.613 232.875 249.349 232.875 250.224L232.907 252.368C232.928 252.795 232.939 253.392 232.939 254.16H231.851C231.339 254.16 230.944 254.149 230.667 254.128L230.571 258.032H231.787C232.277 258.032 232.64 258.021 232.875 258V259.792C232.875 261.285 232.907 262.587 232.971 263.696C233.035 264.805 233.173 265.968 233.387 267.184C233.813 268.229 234.709 268.965 236.075 269.392C237.44 269.819 239.04 270.032 240.875 270.032C241.451 270.032 241.877 270.021 242.155 270C242.304 269.531 242.379 268.955 242.379 268.272C242.379 267.696 242.304 266.832 242.155 265.68C242.005 265.701 241.781 265.712 241.483 265.712C240.587 265.712 239.733 265.616 238.923 265.424C238.112 265.211 237.547 264.869 237.227 264.4C237.205 263.739 237.195 262.715 237.195 261.328V257.936H242.155C242.133 257.872 242.123 257.701 242.123 257.424C242.123 257.211 242.144 256.848 242.187 256.336C242.229 255.824 242.251 255.429 242.251 255.152C242.251 254.555 242.155 254.149 241.963 253.936L240.587 254.032L237.131 254.192L237.099 252.4V248.112Z" fill="white"/>
</svg>
